<svg width="22" height="29" viewBox="0 0 22 29" fill="none" xmlns="http://www.w3.org/2000/svg">
<path d="M11 22C11.7293 22 12.4288 21.7103 12.9445 21.1945C13.4603 20.6788 13.75 19.9793 13.75 19.25C13.75 18.5207 13.4603 17.8212 12.9445 17.3055C12.4288 16.7897 11.7293 16.5 11 16.5C10.2707 16.5 9.57118 16.7897 9.05546 17.3055C8.53973 17.8212 8.25 18.5207 8.25 19.25C8.25 19.9793 8.53973 20.6788 9.05546 21.1945C9.57118 21.7103 10.2707 22 11 22ZM19.25 9.625C19.9793 9.625 20.6788 9.91473 21.1945 10.4305C21.7103 10.9462 22 11.6457 22 12.375V26.125C22 26.8543 21.7103 27.5538 21.1945 28.0695C20.6788 28.5853 19.9793 28.875 19.25 28.875H2.75C2.02065 28.875 1.32118 28.5853 0.805456 28.0695C0.289731 27.5538 0 26.8543 0 26.125V12.375C0 11.6457 0.289731 10.9462 0.805456 10.4305C1.32118 9.91473 2.02065 9.625 2.75 9.625H4.125V6.875C4.125 5.05164 4.84933 3.30295 6.13864 2.01364C7.42795 0.724328 9.17664 0 11 0C11.9028 0 12.7968 0.177827 13.6309 0.523328C14.4651 0.868829 15.223 1.37524 15.8614 2.01364C16.4998 2.65204 17.0062 3.40994 17.3517 4.24405C17.6972 5.07816 17.875 5.97216 17.875 6.875V9.625H19.25ZM11 2.75C9.90598 2.75 8.85677 3.1846 8.08318 3.95818C7.3096 4.73177 6.875 5.78098 6.875 6.875V9.625H15.125V6.875C15.125 5.78098 14.6904 4.73177 13.9168 3.95818C13.1432 3.1846 12.094 2.75 11 2.75Z" fill="black"/>
</svg>
